<svg width="20" height="19" viewBox="0 0 20 19" fill="none" xmlns="http://www.w3.org/2000/svg">
<path d="M1.24592 10.4725L16.0708 10.5214L11.5154 15.9564C11.3024 16.211 11.1992 16.5397 11.2286 16.8704C11.258 17.201 11.4175 17.5064 11.6721 17.7194C11.9266 17.9325 12.2554 18.0356 12.586 18.0062C12.9167 17.9768 13.2221 17.8173 13.4351 17.5628L19.7098 10.0834C19.7521 10.0239 19.7899 9.96136 19.8229 9.89629C19.8231 9.83379 19.8233 9.79629 19.911 9.73408C19.9681 9.59094 19.9983 9.43848 19.9999 9.28437C19.9993 9.13026 19.9701 8.97759 19.9139 8.83409C19.9141 8.77159 19.9143 8.73409 19.827 8.6713C19.7943 8.60601 19.7569 8.54322 19.7151 8.48343L13.4899 0.962847C13.3728 0.821356 13.226 0.707396 13.0599 0.629071C12.8938 0.550746 12.7125 0.50998 12.5289 0.509673C12.2368 0.508138 11.9534 0.608923 11.7279 0.794531C11.601 0.899049 11.4959 1.02758 11.4188 1.17276C11.3416 1.31794 11.2938 1.47692 11.2782 1.64059C11.2626 1.80426 11.2794 1.9694 11.3277 2.12657C11.3759 2.28373 11.4548 2.42983 11.5596 2.55649L16.0791 8.02143L1.25417 7.97251C0.922652 7.97142 0.604275 8.10207 0.369083 8.33571C0.13389 8.56936 0.00114678 8.88686 5.29526e-05 9.21838C-0.00104087 9.5499 0.129604 9.86828 0.36325 10.1035C0.596896 10.3387 0.914403 10.4714 1.24592 10.4725Z" fill="#F53838"/>
</svg>
