<svg width="14" height="10" viewBox="0 0 14 10" fill="none" xmlns="http://www.w3.org/2000/svg">
<path d="M5.3961 9.27958C5.26483 9.27984 5.13481 9.25419 5.01348 9.20408C4.89215 9.15397 4.78192 9.08039 4.6891 8.98758L0.447098 4.74458C0.351525 4.6524 0.275267 4.54211 0.222773 4.42014C0.17028 4.29817 0.142602 4.16697 0.141356 4.0342C0.140109 3.90142 0.165318 3.76972 0.215512 3.64679C0.265706 3.52386 0.33988 3.41216 0.433705 3.3182C0.52753 3.22424 0.639128 3.14991 0.761988 3.09954C0.884847 3.04918 1.01651 3.02378 1.14929 3.02484C1.28207 3.0259 1.4133 3.05339 1.53534 3.10571C1.65738 3.15803 1.76778 3.23413 1.8601 3.32958L5.3951 6.86458L11.7601 0.501577C11.9476 0.313936 12.202 0.208468 12.4672 0.208374C12.7325 0.20828 12.987 0.313569 13.1746 0.501077C13.3622 0.688585 13.4677 0.942953 13.4678 1.20822C13.4679 1.47349 13.3626 1.72794 13.1751 1.91558L6.1031 8.98758C6.01028 9.08039 5.90004 9.15397 5.77872 9.20408C5.65739 9.25419 5.52736 9.27984 5.3961 9.27958Z" fill="#2FAB73"/>
</svg>
